<svg viewBox="0 0 24.9996 24.9996" fill="none" xmlns="http://www.w3.org/2000/svg" xmlns:xlink="http://www.w3.org/1999/xlink" x="0" y="0"><path id="Vector_11" d="M24.287,17.67l-5.469,-2.35c-0.234,-0.1 -0.493,-0.12 -0.74,-0.06c-0.247,0.06 -0.467,0.2 -0.627,0.4l-2.422,2.96c-3.801,-1.79 -6.86,-4.85 -8.652,-8.65l2.959,-2.43c0.197,-0.16 0.337,-0.38 0.397,-0.62c0.061,-0.25 0.04,-0.51 -0.06,-0.74l-2.344,-5.47c-0.11,-0.25 -0.304,-0.46 -0.549,-0.58c-0.245,-0.13 -0.526,-0.16 -0.794,-0.1l-5.078,1.17c-0.258,0.06 -0.488,0.21 -0.653,0.41c-0.165,0.21 -0.255,0.47 -0.255,0.73c0,12.53 10.151,22.66 22.656,22.66c0.265,0 0.523,-0.09 0.73,-0.25c0.208,-0.17 0.353,-0.4 0.413,-0.66l1.172,-5.08c0.06,-0.27 0.025,-0.55 -0.1,-0.79c-0.125,-0.25 -0.331,-0.44 -0.584,-0.55z" fill="currentColor"/></svg>