<svg viewBox="0 0 47 50" fill="none" xmlns="http://www.w3.org/2000/svg" xmlns:xlink="http://www.w3.org/1999/xlink" x="0" y="0"><g id="chevron-double-right">
<path id="Path (Stroke)" fill-rule="evenodd" clip-rule="evenodd" d="M36.289,44.85c-0.574,0.62 -1.504,0.62 -2.078,0l-17.6246,-18.745c-0.5735,-0.61 -0.5735,-1.6 0,-2.21l17.6246,-18.75c0.574,-0.61 1.504,-0.61 2.078,0c0.573,0.61 0.573,1.6 0,2.21l-16.5869,17.645l16.5869,17.65c0.573,0.61 0.573,1.59 0,2.2z" fill="currentColor"/>
<path id="Path (Stroke)_2" fill-rule="evenodd" clip-rule="evenodd" d="M24.5386,44.85c-0.5736,0.62 -1.5036,0.62 -2.0772,0l-17.625,-18.745c-0.5735,-0.61 -0.5735,-1.6 0,-2.21l17.625,-18.75c0.5736,-0.61 1.5036,-0.61 2.0772,0c0.5734,0.61 0.5734,1.6 0,2.21l-16.5865,17.645l16.5865,17.65c0.5734,0.61 0.5734,1.59 0,2.2z" fill="currentColor"/>
</g></svg>