<svg viewBox="0 0 31.6667 28.3333" fill="none" xmlns="http://www.w3.org/2000/svg" xmlns:xlink="http://www.w3.org/1999/xlink" x="0" y="0"><path id="Vector_35" d="M14.8035,28.3364v-2.1h12.59c0.14,0 0.26,-0.04 0.36,-0.13c0.1,-0.08 0.15,-0.19 0.15,-0.33v-12.06c0,-3.28 -1.18,-6.04 -3.54,-8.28c-2.35,-2.25 -5.2,-3.37 -8.53,-3.37c-3.33,0 -6.17,1.12 -8.53,3.37c-2.36,2.24 -3.54,5 -3.54,8.28v9.81h-0.85c-0.8,0 -1.48,-0.28 -2.05,-0.84c-0.58,-0.55 -0.86,-1.23 -0.86,-2.03v-3.24c0,-0.54 0.15,-1.03 0.46,-1.48c0.31,-0.45 0.71,-0.81 1.2,-1.09l0.08,-2.13c0.14,-1.81 0.61,-3.49 1.41,-5.04c0.81,-1.54 1.84,-2.89 3.1,-4.04c1.26,-1.14 2.72,-2.04 4.37,-2.68c1.65,-0.64 3.39,-0.96 5.21,-0.96c1.82,0 3.56,0.32 5.2,0.96c1.64,0.64 3.09,1.53 4.36,2.67c1.27,1.14 2.31,2.48 3.1,4.03c0.8,1.54 1.28,3.23 1.43,5.04l0.08,2.09c0.48,0.22 0.88,0.55 1.19,0.98c0.32,0.42 0.47,0.9 0.47,1.42v3.72c0,0.52 -0.15,1 -0.47,1.42c-0.31,0.43 -0.71,0.76 -1.19,0.98v2.47c0,0.71 -0.26,1.31 -0.77,1.81c-0.51,0.5 -1.13,0.75 -1.84,0.75zM11.1535,16.9164c-0.36,0 -0.66,-0.12 -0.9,-0.36c-0.25,-0.24 -0.37,-0.54 -0.37,-0.89c0,-0.35 0.12,-0.65 0.37,-0.89c0.25,-0.24 0.55,-0.36 0.91,-0.36c0.35,0 0.65,0.12 0.89,0.37c0.25,0.24 0.37,0.54 0.37,0.89c0,0.35 -0.12,0.65 -0.37,0.88c-0.25,0.24 -0.55,0.36 -0.9,0.36zM20.5035,16.9164c-0.35,0 -0.65,-0.12 -0.89,-0.36c-0.25,-0.24 -0.37,-0.54 -0.37,-0.89c0,-0.35 0.12,-0.65 0.37,-0.89c0.25,-0.24 0.55,-0.36 0.9,-0.36c0.36,0 0.66,0.12 0.9,0.37c0.25,0.24 0.37,0.54 0.37,0.89c0,0.35 -0.12,0.65 -0.37,0.88c-0.25,0.24 -0.55,0.36 -0.91,0.36zM6.4535,14.4964c-0.17,-2.72 0.67,-5.04 2.54,-6.98c1.86,-1.93 4.17,-2.9 6.93,-2.9c2.28,0 4.28,0.72 6,2.17c1.72,1.44 2.77,3.29 3.15,5.53c-2.34,-0.03 -4.49,-0.66 -6.46,-1.89c-1.96,-1.23 -3.48,-2.89 -4.55,-4.97c-0.42,2.07 -1.3,3.9 -2.65,5.49c-1.35,1.59 -3.01,2.78 -4.96,3.55z" fill="currentColor"/></svg>