<svg viewBox="0 0 47 50" fill="none" xmlns="http://www.w3.org/2000/svg" xmlns:xlink="http://www.w3.org/1999/xlink" x="0" y="0"><g id="chevron-double-right_2">
<path id="Path (Stroke)_3" fill-rule="evenodd" clip-rule="evenodd" d="M10.71,5.145c0.58,-0.61 1.5,-0.61 2.08,0l17.62,18.75c0.58,0.61 0.58,1.6 0,2.21l-17.62,18.745c-0.58,0.62 -1.5,0.62 -2.08,0c-0.57,-0.61 -0.57,-1.595 0,-2.205l16.59,-17.645l-16.59,-17.645c-0.57,-0.61 -0.57,-1.6 0,-2.21z" fill="currentColor"/>
<path id="Path (Stroke)_4" fill-rule="evenodd" clip-rule="evenodd" d="M22.46,5.145c0.58,-0.61 1.5,-0.61 2.08,0l17.62,18.75c0.58,0.61 0.58,1.6 0,2.21l-17.62,18.745c-0.58,0.62 -1.5,0.62 -2.08,0c-0.57,-0.61 -0.57,-1.595 0,-2.205l16.59,-17.645l-16.59,-17.645c-0.57,-0.61 -0.57,-1.6 0,-2.21z" fill="currentColor"/>
</g></svg>