<svg viewBox="0 0 35 29" fill="none" xmlns="http://www.w3.org/2000/svg" xmlns:xlink="http://www.w3.org/1999/xlink" x="0" y="0"><g id="Union_2">
<path d="M17.5,6.34c0,-0.5 -0.49,-0.9 -1.094,-0.9c-0.604,0 -1.094,0.4 -1.094,0.9v9.97c0,0.33 0.211,0.63 0.552,0.79l7.656,3.62c0.524,0.25 1.192,0.1 1.492,-0.33c0.3,-0.44 0.118,-0.99 -0.407,-1.24l-7.105,-3.36z" fill="black"/>
<path d="M17.5,29c9.665,0 17.5,-6.49 17.5,-14.5c0,-8.01 -7.835,-14.5 -17.5,-14.5c-9.665,0 -17.5,6.49 -17.5,14.5c0,8.01 7.835,14.5 17.5,14.5zM32.812,14.5c0,7.01 -6.855,12.69 -15.312,12.69c-8.457,0 -15.312,-5.68 -15.312,-12.69c0,-7.01 6.855,-12.69 15.312,-12.69c8.457,0 15.312,5.68 15.312,12.69z" fill="black"/>
</g></svg>