<svg viewBox="0 0 30 33" fill="none" xmlns="http://www.w3.org/2000/svg" xmlns:xlink="http://www.w3.org/1999/xlink" x="0" y="0"><path id="Union" d="M10.61,24.218c2.01,1.631 4.51,2.594 7.2,2.594c6.73,0 12.19,-6.002 12.19,-13.406c0,-7.404 -5.46,-13.406 -12.19,-13.406c-6.73,0 -12.19,6.002 -12.19,13.406c0,2.967 0.88,5.709 2.36,7.93v-0.002c-0.07,0.061 -0.14,0.129 -0.21,0.204l-7.22,7.941c-0.73,0.806 -0.73,2.111 0,2.917c0.73,0.805 1.92,0.805 2.65,0l7.22,-7.942c0.07,-0.074 0.13,-0.153 0.19,-0.236zM17.81,24.75c-5.69,0 -10.31,-5.079 -10.31,-11.344c0,-6.265 4.62,-11.344 10.31,-11.344c5.7,0 10.31,5.079 10.31,11.344c0,6.265 -4.61,11.344 -10.31,11.344z" fill="currentColor"/></svg>