<svg viewBox="0 0 15.7508 9.3751" fill="none" xmlns="http://www.w3.org/2000/svg" xmlns:xlink="http://www.w3.org/1999/xlink" x="0" y="0"><path id="Vector_15" d="M0.2251,1.6831l6.149,7.119c0.154,0.175 0.373,0.319 0.636,0.42c0.264,0.1 0.562,0.153 0.865,0.153c0.304,0 0.602,-0.053 0.865,-0.153c0.263,-0.101 0.483,-0.245 0.636,-0.42l6.149,-7.119c0.148,-0.168 0.226,-0.3603 0.226,-0.5557c0,-0.1954 -0.078,-0.3872 -0.226,-0.5559c-0.151,-0.1755 -0.37,-0.3209 -0.634,-0.4214c-0.264,-0.1004 -0.563,-0.1522 -0.867,-0.15h-12.298c-0.303,-0.002 -0.602,0.0499 -0.866,0.1503c-0.263,0.1004 -0.482,0.2457 -0.633,0.4211c-0.148,0.1686 -0.227,0.3604 -0.227,0.5558c0,0.1954 0.078,0.3868 0.225,0.5558zM1.2001,0.9469c0.054,-0.0609 0.131,-0.1113 0.223,-0.1459c0.093,-0.0346 0.197,-0.0522 0.303,-0.0509h12.298c0.106,-0.0013 0.211,0.0163 0.303,0.0509c0.092,0.0346 0.169,0.085 0.223,0.1459c0.049,0.0548 0.074,0.1173 0.074,0.181c0,0.0636 -0.025,0.1261 -0.074,0.1809l-6.149,7.1193c-0.055,0.06 -0.132,0.11 -0.224,0.145c-0.093,0.035 -0.197,0.054 -0.303,0.054c-0.106,0 -0.211,-0.019 -0.303,-0.054c-0.093,-0.035 -0.17,-0.085 -0.225,-0.145l-6.148,-7.1193c-0.048,-0.055 -0.074,-0.1175 -0.073,-0.1812c0,-0.0636 0.026,-0.126 0.075,-0.1807z" fill="currentColor"/></svg>