<svg viewBox="0 0 30 30" fill="none" xmlns="http://www.w3.org/2000/svg" xmlns:xlink="http://www.w3.org/1999/xlink" x="0" y="0"><g id="calendar4-event">
<g id="calendar4-frame">
<path id="calendar4" d="M6.562,0c0.518,0 0.938,0.42 0.938,0.94v0.94h15v-0.94c0,-0.52 0.42,-0.94 0.938,-0.94c0.517,0 0.937,0.42 0.937,0.94v0.94h1.875c2.071,0 3.75,1.67 3.75,3.74v20.63c0,2.07 -1.679,3.75 -3.75,3.75h-22.5c-2.071,0 -3.75,-1.68 -3.75,-3.75v-20.63c0,-2.07 1.679,-3.74 3.75,-3.74h1.875v-0.94c0,-0.52 0.42,-0.94 0.937,-0.94zM3.75,3.75c-1.036,0 -1.875,0.84 -1.875,1.87v1.88h26.25v-1.88c0,-1.03 -0.839,-1.87 -1.875,-1.87zM28.125,9.38h-26.25v16.87c0,1.04 0.839,1.87 1.875,1.87h22.5c1.036,0 1.875,-0.83 1.875,-1.87z" fill="black"/>
</g>
<path id="Rectangle 267" d="M20.625,14.06c0,-0.52 0.42,-0.94 0.937,-0.94h1.876c0.517,0 0.937,0.42 0.937,0.94v1.88c0,0.52 -0.42,0.94 -0.937,0.94h-1.876c-0.517,0 -0.937,-0.42 -0.937,-0.94z" fill="black"/>
</g></svg>