<svg viewBox="0 0 47 50" fill="none" xmlns="http://www.w3.org/2000/svg" xmlns:xlink="http://www.w3.org/1999/xlink" x="0" y="0"><g id="chevron-double-right_3">
<path id="Path (Stroke)_5" fill-rule="evenodd" clip-rule="evenodd" d="M36.29,44.855c-0.58,0.61 -1.5,0.61 -2.08,0l-17.62,-18.75c-0.58,-0.61 -0.58,-1.6 0,-2.21l17.62,-18.75c0.58,-0.61 1.5,-0.61 2.08,0c0.57,0.61 0.57,1.6 0,2.21l-16.59,17.645l16.59,17.645c0.57,0.61 0.57,1.6 0,2.21z" fill="currentColor"/>
<path id="Path (Stroke)_6" fill-rule="evenodd" clip-rule="evenodd" d="M24.54,44.855c-0.58,0.61 -1.5,0.61 -2.08,0l-17.62,-18.75c-0.58,-0.61 -0.58,-1.6 0,-2.21l17.62,-18.75c0.58,-0.61 1.5,-0.61 2.08,0c0.57,0.61 0.57,1.6 0,2.21l-16.59,17.645l16.59,17.645c0.57,0.61 0.57,1.6 0,2.21z" fill="currentColor"/>
</g></svg>