<svg viewBox="0 0 25 25" fill="none" xmlns="http://www.w3.org/2000/svg" xmlns:xlink="http://www.w3.org/1999/xlink" x="0" y="0"><path id="Vector_12" d="M25,22.66c0,1.29 -1.049,2.34 -2.344,2.34h-20.312c-1.295,0 -2.344,-1.05 -2.344,-2.34v-12.86c0,-0.35 0.081,-0.71 0.236,-1.02c0.156,-0.32 0.382,-0.6 0.662,-0.82c1.216,-0.96 2.222,-1.73 8.017,-5.94c0.822,-0.6 2.452,-2.04 3.585,-2.02c1.133,-0.02 2.763,1.42 3.585,2.02c5.795,4.21 6.802,4.98 8.017,5.94c0.28,0.22 0.506,0.5 0.662,0.82c0.155,0.31 0.236,0.67 0.236,1.02zM21.794,13.06c-0.125,-0.19 -0.376,-0.23 -0.554,-0.1c-1.115,0.83 -2.708,1.99 -5.155,3.77c-0.822,0.6 -2.452,2.04 -3.585,2.02c-1.133,0.02 -2.762,-1.42 -3.585,-2.02c-2.447,-1.78 -4.039,-2.94 -5.155,-3.77c-0.178,-0.13 -0.429,-0.09 -0.554,0.1l-0.443,0.64c-0.057,0.08 -0.08,0.19 -0.063,0.29c0.017,0.1 0.072,0.19 0.153,0.25c1.118,0.82 2.708,1.98 5.142,3.75c0.99,0.72 2.76,2.33 4.505,2.32c1.744,0.01 3.514,-1.6 4.505,-2.32c2.434,-1.77 4.024,-2.93 5.142,-3.75c0.081,-0.06 0.136,-0.15 0.153,-0.25c0.017,-0.1 -0.006,-0.21 -0.063,-0.29z" fill="currentColor"/></svg>