<svg viewBox="0 0 295 50" fill="none" xmlns="http://www.w3.org/2000/svg" xmlns:xlink="http://www.w3.org/1999/xlink" x="0" y="0"><defs><clipPath id="clip10_778_95">
<rect width="50" height="50" fill="white" transform="translate(0.5, 0)"/>
</clipPath><clipPath id="clip11_778_95">
<rect width="50" height="50" fill="white" transform="translate(82.5, 0)"/>
</clipPath><clipPath id="clip12_778_95">
<rect width="48" height="48" fill="white" transform="translate(164.5, 1)"/>
</clipPath><clipPath id="clip13_778_95">
<rect width="50" height="50" fill="white" transform="translate(244.5, 0)"/>
</clipPath></defs><g id="Frame 84_3">
<g id="20128634341559031671 1_2" clip-path="url(#clip10_778_95)">
<g id="Group_2">
<path id="Vector_16" d="M25.5,50c13.81,0 25,-11.19 25,-25c0,-13.81 -11.19,-25 -25,-25c-13.81,0 -25,11.19 -25,25c0,13.81 11.19,25 25,25z" fill="currentColor" fill-opacity="0.4"/>
<path id="Vector_17" d="M31.79,25.98h-4.47v16.34h-6.75v-16.34h-3.22v-5.74h3.22v-3.72c0,-2.66 1.26,-6.82 6.81,-6.82l5.01,0.02v5.57h-3.63c-0.6,0 -1.44,0.3 -1.44,1.57v3.38h5.06z" fill="white"/>
</g>
</g>
<g id="17998766861556105338 1_2" clip-path="url(#clip11_778_95)">
<path id="Vector_18" d="M82.5,25c0,-13.81 11.19,-25 25,-25c13.81,0 25,11.19 25,25c0,13.81 -11.19,25 -25,25c-13.81,0 -25,-11.19 -25,-25z" fill="currentColor" fill-opacity="0.4"/>
<path id="Vector_19" d="M106.75,20.32l0.05,0.87l-0.87,-0.11c-3.18,-0.41 -5.96,-1.78 -8.32,-4.1l-1.16,-1.14l-0.3,0.84c-0.63,1.89 -0.22,3.89 1.09,5.23c0.7,0.74 0.54,0.85 -0.67,0.41c-0.42,-0.15 -0.78,-0.25 -0.82,-0.2c-0.12,0.12 0.3,1.73 0.63,2.37c0.46,0.88 1.38,1.74 2.4,2.26l0.85,0.4l-1.01,0.02c-0.98,0 -1.01,0.02 -0.91,0.39c0.35,1.15 1.73,2.36 3.27,2.89l1.08,0.37l-0.94,0.57c-1.4,0.81 -3.04,1.27 -4.69,1.31c-0.78,0.01 -1.43,0.08 -1.43,0.14c0,0.17 2.13,1.16 3.37,1.55c3.73,1.15 8.15,0.65 11.48,-1.31c2.36,-1.39 4.72,-4.16 5.82,-6.85c0.59,-1.43 1.19,-4.04 1.19,-5.29c0,-0.81 0.05,-0.92 1.03,-1.89c0.58,-0.57 1.12,-1.18 1.22,-1.36c0.18,-0.34 0.16,-0.34 -0.73,-0.04c-1.49,0.53 -1.7,0.46 -0.96,-0.33c0.54,-0.57 1.19,-1.59 1.19,-1.89c0,-0.05 -0.26,0.04 -0.56,0.19c-0.32,0.18 -1.02,0.45 -1.54,0.6l-0.95,0.3l-0.85,-0.58c-0.47,-0.32 -1.14,-0.67 -1.49,-0.77c-0.89,-0.25 -2.25,-0.22 -3.06,0.07c-2.18,0.79 -3.57,2.84 -3.41,5.08z" fill="white"/>
</g>
<g id="14206930261556105324 1_2" clip-path="url(#clip12_778_95)">
<path id="Vector_20" d="M164.5,25c0,-13.25 10.75,-24 24,-24c13.25,0 24,10.75 24,24c0,13.25 -10.75,24 -24,24c-13.25,0 -24,-10.75 -24,-24z" fill="currentColor" fill-opacity="0.4"/>
<path id="Vector_21" fill-rule="evenodd" clip-rule="evenodd" d="M181.82,15.82c0,1.57 -1.18,2.83 -3.08,2.83h-0.03c-1.83,0 -3.01,-1.26 -3.01,-2.83c0,-1.6 1.22,-2.82 3.08,-2.82c1.86,0 3,1.22 3.04,2.82zM181.46,20.88v16.34h-5.44v-16.34zM201.08,37.22v-9.37c0,-5.02 -2.69,-7.36 -6.27,-7.36c-2.88,0 -4.18,1.59 -4.9,2.7v-2.31h-5.44c0.07,1.53 0,16.34 0,16.34h5.44v-9.13c0,-0.49 0.04,-0.97 0.18,-1.32c0.39,-0.98 1.29,-1.99 2.79,-1.99c1.97,0 2.76,1.5 2.76,3.7v8.74z" fill="white"/>
</g>
<g id="9920775951556105709 1_2" clip-path="url(#clip13_778_95)">
<path id="Vector_22" fill-rule="evenodd" clip-rule="evenodd" d="M269.5,0c-13.81,0 -25,11.19 -25,25c0,13.81 11.19,25 25,25c13.81,0 25,-11.19 25,-25c0,-13.81 -11.19,-25 -25,-25zM264,11.75c1.43,-0.07 1.88,-0.08 5.5,-0.08v0c3.62,0 4.07,0.01 5.49,0.08c1.42,0.06 2.39,0.29 3.24,0.62c0.88,0.34 1.62,0.79 2.36,1.53c0.75,0.75 1.2,1.49 1.54,2.37c0.33,0.84 0.56,1.81 0.62,3.23c0.07,1.42 0.08,1.88 0.08,5.5c0,3.62 -0.01,4.07 -0.08,5.5c-0.06,1.42 -0.29,2.38 -0.62,3.23c-0.34,0.88 -0.79,1.62 -1.54,2.36c-0.74,0.75 -1.48,1.2 -2.36,1.54c-0.84,0.33 -1.81,0.56 -3.23,0.62c-1.43,0.07 -1.88,0.08 -5.5,0.08c-3.62,0 -4.08,-0.01 -5.5,-0.08c-1.42,-0.06 -2.39,-0.29 -3.23,-0.62c-0.88,-0.34 -1.62,-0.79 -2.37,-1.54c-0.74,-0.74 -1.19,-1.48 -1.53,-2.36c-0.33,-0.85 -0.56,-1.81 -0.62,-3.23c-0.07,-1.43 -0.08,-1.88 -0.08,-5.5c0,-3.62 0.01,-4.08 0.08,-5.5c0.06,-1.42 0.29,-2.39 0.62,-3.23c0.34,-0.88 0.79,-1.62 1.54,-2.37c0.74,-0.74 1.48,-1.19 2.36,-1.53c0.85,-0.33 1.81,-0.56 3.23,-0.62z" fill="currentColor" fill-opacity="0.4"/>
<path id="Vector_23" fill-rule="evenodd" clip-rule="evenodd" d="M268.31,14.07c0.23,0 0.48,0 0.75,0h0.44c3.56,0 3.98,0.01 5.39,0.08c1.3,0.06 2,0.27 2.47,0.46c0.63,0.24 1.07,0.53 1.54,0.99c0.46,0.47 0.75,0.91 0.99,1.54c0.19,0.47 0.4,1.17 0.46,2.47c0.07,1.41 0.08,1.83 0.08,5.39c0,3.56 -0.01,3.98 -0.08,5.38c-0.06,1.3 -0.27,2.01 -0.46,2.48c-0.24,0.62 -0.53,1.06 -0.99,1.53c-0.47,0.47 -0.91,0.76 -1.54,1c-0.46,0.18 -1.17,0.4 -2.47,0.46c-1.41,0.06 -1.83,0.07 -5.39,0.07c-3.56,0 -3.98,-0.01 -5.39,-0.07c-1.3,-0.06 -2,-0.28 -2.47,-0.46c-0.62,-0.24 -1.07,-0.53 -1.54,-1c-0.46,-0.47 -0.75,-0.91 -0.99,-1.53c-0.19,-0.47 -0.4,-1.18 -0.46,-2.48c-0.07,-1.4 -0.08,-1.83 -0.08,-5.39c0,-3.56 0.01,-3.98 0.08,-5.38c0.06,-1.3 0.27,-2.01 0.46,-2.48c0.24,-0.62 0.53,-1.06 0.99,-1.53c0.47,-0.47 0.92,-0.76 1.54,-1c0.47,-0.18 1.17,-0.4 2.47,-0.46c1.23,-0.05 1.71,-0.07 4.2,-0.07zM276.62,16.28c-0.88,0 -1.6,0.72 -1.6,1.6c0,0.89 0.72,1.6 1.6,1.6c0.88,0 1.6,-0.71 1.6,-1.6c0,-0.88 -0.72,-1.6 -1.6,-1.6zM262.65,25c0,-3.78 3.07,-6.85 6.85,-6.85c3.78,0 6.85,3.07 6.85,6.85c0,3.78 -3.07,6.85 -6.85,6.85c-3.78,0 -6.85,-3.07 -6.85,-6.85z" fill="currentColor" fill-opacity="0.4"/>
<path id="Vector_24" d="M269.5,20.56c2.46,0 4.45,1.99 4.45,4.44c0,2.45 -1.99,4.44 -4.45,4.44c-2.45,0 -4.44,-1.99 -4.44,-4.44c0,-2.45 1.99,-4.44 4.44,-4.44z" fill="currentColor" fill-opacity="0.4"/>
</g>
</g></svg>