<svg viewBox="0 0 295 50" fill="none" xmlns="http://www.w3.org/2000/svg" xmlns:xlink="http://www.w3.org/1999/xlink" x="0" y="0"><defs><clipPath id="clip5_778_95">
<rect width="50" height="50" fill="white" transform="translate(0.5, 0)"/>
</clipPath><clipPath id="clip6_778_95">
<rect width="50" height="50" fill="white" transform="translate(82.5, 0)"/>
</clipPath><clipPath id="clip7_778_95">
<rect width="48" height="48" fill="white" transform="translate(164.5, 1)"/>
</clipPath><clipPath id="clip8_778_95">
<rect width="50" height="50" fill="white" transform="translate(244.5, 0)"/>
</clipPath></defs><g id="Frame 84_2">
<g id="20128634341559031671 1" clip-path="url(#clip5_778_95)">
<g id="Group">
<path id="Vector_2" d="M25.5,50c13.807,0 25,-11.19 25,-25c0,-13.81 -11.193,-25 -25,-25c-13.807,0 -25,11.19 -25,25c0,13.81 11.193,25 25,25z" fill="currentColor" fill-opacity="0.4"/>
<path id="Vector_3" d="M31.785,25.98h-4.461v16.34h-6.758v-16.34h-3.215v-5.74h3.215v-3.72c0,-2.66 1.262,-6.82 6.818,-6.82l5.007,0.02v5.57h-3.633c-0.595,0 -1.433,0.3 -1.433,1.57v3.38h5.051z" fill="white"/>
</g>
</g>
<g id="17998766861556105338 1" clip-path="url(#clip6_778_95)">
<path id="Vector_4" d="M82.5,25c0,-13.81 11.193,-25 25,-25c13.807,0 25,11.19 25,25c0,13.81 -11.193,25 -25,25c-13.807,0 -25,-11.19 -25,-25z" fill="currentColor" fill-opacity="0.4"/>
<path id="Vector_5" d="M106.751,20.32l0.053,0.87l-0.875,-0.11c-3.182,-0.41 -5.963,-1.78 -8.323,-4.1l-1.155,-1.14l-0.297,0.84c-0.629,1.89 -0.227,3.89 1.084,5.23c0.7,0.74 0.542,0.85 -0.664,0.41c-0.42,-0.15 -0.787,-0.25 -0.822,-0.2c-0.122,0.12 0.297,1.73 0.629,2.37c0.455,0.88 1.382,1.74 2.396,2.26l0.857,0.4l-1.014,0.02c-0.979,0 -1.014,0.02 -0.909,0.39c0.349,1.15 1.731,2.36 3.27,2.89l1.084,0.37l-0.945,0.57c-1.399,0.81 -3.042,1.27 -4.686,1.31c-0.787,0.01 -1.434,0.08 -1.434,0.14c0,0.17 2.133,1.16 3.375,1.55c3.725,1.15 8.149,0.65 11.471,-1.31c2.361,-1.39 4.722,-4.16 5.824,-6.85c0.594,-1.43 1.189,-4.04 1.189,-5.29c0,-0.81 0.052,-0.92 1.031,-1.89c0.577,-0.57 1.12,-1.18 1.225,-1.36c0.174,-0.34 0.157,-0.34 -0.735,-0.04c-1.486,0.53 -1.696,0.46 -0.962,-0.33c0.542,-0.57 1.189,-1.59 1.189,-1.89c0,-0.05 -0.262,0.04 -0.559,0.19c-0.315,0.18 -1.014,0.45 -1.539,0.6l-0.944,0.3l-0.857,-0.58c-0.472,-0.32 -1.137,-0.67 -1.487,-0.77c-0.891,-0.25 -2.255,-0.22 -3.06,0.07c-2.186,0.79 -3.567,2.84 -3.41,5.08z" fill="white"/>
</g>
<g id="14206930261556105324 1" clip-path="url(#clip7_778_95)">
<path id="Vector_6" d="M164.5,25c0,-13.25 10.745,-24 24,-24c13.255,0 24,10.75 24,24c0,13.25 -10.745,24 -24,24c-13.255,0 -24,-10.75 -24,-24z" fill="currentColor" fill-opacity="0.4"/>
<path id="Vector_7" fill-rule="evenodd" clip-rule="evenodd" d="M181.819,15.82c0,1.57 -1.181,2.83 -3.078,2.83h-0.034c-1.826,0 -3.007,-1.26 -3.007,-2.83c0,-1.6 1.217,-2.82 3.077,-2.82c1.861,0 3.007,1.22 3.042,2.82zM181.461,20.88v16.34h-5.439v-16.34zM201.075,37.22l0.001,-9.37c0,-5.02 -2.684,-7.36 -6.263,-7.36c-2.887,0 -4.18,1.59 -4.902,2.7v-2.31h-5.44c0.072,1.53 0,16.34 0,16.34h5.44v-9.13c0,-0.49 0.035,-0.97 0.179,-1.32c0.393,-0.98 1.288,-1.99 2.791,-1.99c1.969,0 2.756,1.5 2.756,3.7v8.74z" fill="white"/>
</g>
<g id="9920775951556105709 1" clip-path="url(#clip8_778_95)">
<path id="Vector_8" fill-rule="evenodd" clip-rule="evenodd" d="M269.5,0c-13.807,0 -25,11.19 -25,25c0,13.81 11.193,25 25,25c13.807,0 25,-11.19 25,-25c0,-13.81 -11.193,-25 -25,-25zM264.003,11.75c1.423,-0.07 1.877,-0.08 5.498,-0.08h-0.004c3.622,0 4.075,0.01 5.497,0.08c1.42,0.06 2.389,0.29 3.239,0.62c0.878,0.34 1.62,0.79 2.361,1.53c0.742,0.75 1.198,1.49 1.539,2.37c0.328,0.84 0.553,1.81 0.62,3.23c0.064,1.42 0.08,1.88 0.08,5.5c0,3.62 -0.016,4.07 -0.08,5.5c-0.067,1.42 -0.292,2.38 -0.62,3.23c-0.341,0.88 -0.797,1.62 -1.539,2.36c-0.74,0.75 -1.483,1.2 -2.36,1.54c-0.848,0.33 -1.818,0.56 -3.238,0.62c-1.422,0.07 -1.875,0.08 -5.496,0.08c-3.621,0 -4.075,-0.01 -5.498,-0.08c-1.419,-0.06 -2.388,-0.29 -3.236,-0.62c-0.877,-0.34 -1.621,-0.79 -2.362,-1.54c-0.741,-0.74 -1.197,-1.48 -1.537,-2.36c-0.33,-0.85 -0.555,-1.81 -0.62,-3.23c-0.064,-1.43 -0.08,-1.88 -0.08,-5.5c0,-3.62 0.016,-4.08 0.08,-5.5c0.064,-1.42 0.289,-2.39 0.619,-3.23c0.342,-0.88 0.798,-1.62 1.539,-2.37c0.741,-0.74 1.485,-1.19 2.362,-1.53c0.848,-0.33 1.817,-0.56 3.236,-0.62z" fill="currentColor" fill-opacity="0.4"/>
<path id="Vector_9" fill-rule="evenodd" clip-rule="evenodd" d="M268.305,14.07c0.233,0 0.482,0 0.752,0h0.445c3.56,0 3.982,0.01 5.387,0.08c1.3,0.06 2.006,0.27 2.476,0.46c0.622,0.24 1.066,0.53 1.532,0.99c0.467,0.47 0.756,0.91 0.998,1.54c0.182,0.47 0.4,1.17 0.459,2.47c0.064,1.41 0.078,1.83 0.078,5.39c0,3.56 -0.014,3.98 -0.078,5.38c-0.059,1.3 -0.277,2.01 -0.459,2.48c-0.242,0.62 -0.531,1.06 -0.998,1.53c-0.467,0.47 -0.91,0.76 -1.532,1c-0.47,0.18 -1.176,0.4 -2.476,0.46c-1.405,0.06 -1.827,0.07 -5.387,0.07c-3.561,0 -3.983,-0.01 -5.388,-0.07c-1.3,-0.06 -2.006,-0.28 -2.476,-0.46c-0.622,-0.24 -1.067,-0.53 -1.534,-1c-0.466,-0.47 -0.755,-0.91 -0.997,-1.53c-0.183,-0.47 -0.4,-1.18 -0.46,-2.48c-0.063,-1.4 -0.076,-1.83 -0.076,-5.39c0,-3.56 0.013,-3.98 0.076,-5.38c0.06,-1.3 0.277,-2.01 0.46,-2.48c0.241,-0.62 0.531,-1.06 0.997,-1.53c0.467,-0.47 0.912,-0.76 1.534,-1c0.47,-0.18 1.176,-0.4 2.476,-0.46c1.23,-0.05 1.706,-0.07 4.191,-0.07zM276.619,16.28c-0.884,0 -1.6,0.72 -1.6,1.6c0,0.89 0.716,1.6 1.6,1.6c0.883,0 1.6,-0.71 1.6,-1.6c0,-0.88 -0.717,-1.6 -1.6,-1.6zM262.654,25c0,-3.78 3.066,-6.85 6.847,-6.85c3.782,0 6.847,3.07 6.847,6.85c0,3.78 -3.065,6.85 -6.846,6.85c-3.782,0 -6.848,-3.07 -6.848,-6.85z" fill="currentColor" fill-opacity="0.4"/>
<path id="Vector_10" d="M269.501,20.56c2.455,0 4.445,1.99 4.445,4.44c0,2.45 -1.99,4.44 -4.445,4.44c-2.455,0 -4.444,-1.99 -4.444,-4.44c0,-2.45 1.989,-4.44 4.444,-4.44z" fill="currentColor" fill-opacity="0.4"/>
</g>
</g></svg>